<svg width="40" height="40" viewBox="0 0 40 40" fill="none" xmlns="http://www.w3.org/2000/svg">
<rect width="40" height="40" rx="20" fill="#704CFF"/>
<path d="M19.0769 13.2431V16.8246C19.0762 17.2707 18.9435 17.7066 18.6957 18.0774C18.4479 18.4483 18.0959 18.7376 17.684 18.9089C17.4116 19.0215 17.1194 19.0787 16.8246 19.0769H13.2431C12.6474 19.0745 12.0769 18.8361 11.6565 18.414C11.2361 17.9919 11 17.4204 11 16.8246V13.2523C11 12.6566 11.2361 12.0851 11.6565 11.6629C12.0769 11.2408 12.6474 11.0024 13.2431 11H16.8246C17.4204 11 17.9919 11.236 18.414 11.6564C18.8361 12.0768 19.0745 12.6473 19.0769 13.2431ZM29 13.2523V16.8246C29.0019 17.1196 28.9449 17.4119 28.8324 17.6846C28.7199 17.9572 28.554 18.2046 28.3446 18.4123C28.1383 18.6243 27.8913 18.7924 27.6185 18.9066C27.3457 19.0208 27.0526 19.0787 26.7569 19.0769H23.1754C22.7304 19.0763 22.2954 18.9445 21.925 18.6979C21.5545 18.4512 21.2651 18.1008 21.0929 17.6905C20.9788 17.4162 20.9211 17.1217 20.9231 16.8246V13.2523C20.9223 12.9567 20.9807 12.664 21.0949 12.3913C21.209 12.1186 21.3766 11.8715 21.5877 11.6646C21.7952 11.4543 22.0424 11.2873 22.3149 11.1733C22.5875 11.0592 22.8799 11.0003 23.1754 11H26.7569C27.3526 11.0024 27.9231 11.2408 28.3435 11.6629C28.7639 12.0851 29 12.6566 29 13.2523ZM19.0769 23.1846V26.7569C19.0745 27.3527 18.8361 27.9232 18.414 28.3436C17.9919 28.764 17.4204 29 16.8246 29H13.2431C12.6483 28.9988 12.0779 28.7634 11.6554 28.3446C11.446 28.1369 11.2801 27.8895 11.1676 27.6169C11.0551 27.3442 10.9981 27.0519 11 26.7569V23.1846C10.9981 22.8897 11.0551 22.5973 11.1676 22.3247C11.2801 22.052 11.446 21.8046 11.6554 21.5969C12.076 21.1731 12.6461 20.9311 13.2431 20.9231H16.8246C17.4221 20.9279 17.9935 21.168 18.4151 21.5914C18.8367 22.0147 19.0745 22.5872 19.0769 23.1846ZM29 24.9662C28.9981 25.7632 28.7602 26.5418 28.3163 27.2038C27.8723 27.8657 27.2423 28.3813 26.5055 28.6855C25.7688 28.9896 24.9585 29.0687 24.1769 28.9128C23.3953 28.7569 22.6774 28.3729 22.1138 27.8093C21.5502 27.2457 21.1662 26.5278 21.0103 25.7461C20.8543 24.9645 20.9334 24.1542 21.2376 23.4175C21.5418 22.6808 22.0574 22.0507 22.7193 21.6067C23.3812 21.1628 24.1599 20.9249 24.9569 20.9231C25.7567 20.9253 26.538 21.1636 27.2029 21.6081C27.8678 22.0527 28.3867 22.6836 28.6944 23.4218C28.8975 23.9111 29.0009 24.4363 29 24.9662Z" fill="white"/>
</svg>
