<svg width="45" height="49" viewBox="0 0 45 49" fill="none" xmlns="http://www.w3.org/2000/svg">
<path d="M15.3333 1H3.38889C2.75532 1 2.14769 1.2751 1.69969 1.76478C1.25169 2.25445 1 2.9186 1 3.61111V16.6667C1 17.3592 1.25169 18.0233 1.69969 18.513C2.14769 19.0027 2.75532 19.2778 3.38889 19.2778H15.3333C15.9669 19.2778 16.5745 19.0027 17.0225 18.513C17.4705 18.0233 17.7222 17.3592 17.7222 16.6667V3.61111C17.7222 2.9186 17.4705 2.25445 17.0225 1.76478C16.5745 1.2751 15.9669 1 15.3333 1ZM15.3333 29.7222H3.38889C2.75532 29.7222 2.14769 29.9973 1.69969 30.487C1.25169 30.9767 1 31.6408 1 32.3333V45.3889C1 46.0814 1.25169 46.7455 1.69969 47.2352C2.14769 47.7249 2.75532 48 3.38889 48H15.3333C15.9669 48 16.5745 47.7249 17.0225 47.2352C17.4705 46.7455 17.7222 46.0814 17.7222 45.3889V32.3333C17.7222 31.6408 17.4705 30.9767 17.0225 30.487C16.5745 29.9973 15.9669 29.7222 15.3333 29.7222ZM41.6111 1H29.6667C29.0331 1 28.4255 1.2751 27.9775 1.76478C27.5295 2.25445 27.2778 2.9186 27.2778 3.61111V16.6667C27.2778 17.3592 27.5295 18.0233 27.9775 18.513C28.4255 19.0027 29.0331 19.2778 29.6667 19.2778H41.6111C42.2447 19.2778 42.8523 19.0027 43.3003 18.513C43.7483 18.0233 44 17.3592 44 16.6667V3.61111C44 2.9186 43.7483 2.25445 43.3003 1.76478C42.8523 1.2751 42.2447 1 41.6111 1ZM41.6111 29.7222H29.6667C29.0331 29.7222 28.4255 29.9973 27.9775 30.487C27.5295 30.9767 27.2778 31.6408 27.2778 32.3333V45.3889C27.2778 46.0814 27.5295 46.7455 27.9775 47.2352C28.4255 47.7249 29.0331 48 29.6667 48H41.6111C42.2447 48 42.8523 47.7249 43.3003 47.2352C43.7483 46.7455 44 46.0814 44 45.3889V32.3333C44 31.6408 43.7483 30.9767 43.3003 30.487C42.8523 29.9973 42.2447 29.7222 41.6111 29.7222Z" stroke="white" stroke-width="2" stroke-linejoin="round"/>
</svg>
