<svg width="50" height="54" viewBox="0 0 50 54" fill="none" xmlns="http://www.w3.org/2000/svg">
<path d="M48.6099 16.106H41.1535C41.558 14.9695 41.768 13.7643 41.768 12.5502C41.768 11.6582 41.657 10.7915 41.448 9.96308L43.0385 9.21351C43.4316 9.67367 43.9407 10.0253 44.5276 10.2339C45.4096 10.5475 46.3611 10.5001 47.2069 10.1013C48.0529 9.70268 48.6924 8.99994 49.0072 8.12254C49.3221 7.24525 49.2748 6.29846 48.8741 5.45671C48.5758 4.83012 48.1082 4.31871 47.5309 3.97003C47.6257 3.30483 47.5242 2.62097 47.226 1.99438C46.3985 0.256468 44.3046 -0.487614 42.5577 0.335359C41.0967 1.02396 40.3344 2.5945 40.6084 4.10671L38.6346 5.03705C36.7004 3.11288 34.0302 1.92119 31.0854 1.92119C28.5416 1.92119 26.2026 2.8105 24.3659 4.29318C20.6521 2.70292 16.4766 2.77042 12.8021 4.50222C10.3488 5.65848 8.2996 7.47834 6.87639 9.76511C5.67832 11.6903 4.96974 13.8637 4.80173 16.1062H1.05996C0.474545 16.1062 0 16.5785 0 17.1609V22.3062C0 22.8886 0.474545 23.3609 1.05996 23.3609H2.60708L6.2189 53.072C6.28335 53.6016 6.735 54 7.27123 54H42.3986C42.9348 54 43.3865 53.6016 43.4509 53.072L47.0627 23.3609H48.6098C49.1951 23.3609 49.6698 22.8886 49.6698 22.3062V17.1607C49.6699 16.5783 49.1953 16.106 48.6099 16.106ZM42.3692 5.61091C42.6332 5.48646 42.8341 5.25896 42.9239 4.98231C43.0139 4.70556 42.9849 4.40424 42.8441 4.14943C42.8311 4.12601 42.8185 4.10228 42.8065 4.07718C42.4797 3.39047 42.7752 2.56708 43.4653 2.24181C44.1558 1.91655 44.9831 2.21059 45.3101 2.8973C45.4932 3.28226 45.4881 3.72238 45.2958 4.10492C45.15 4.39475 45.1463 4.73531 45.2857 5.02819C45.4251 5.32108 45.6922 5.53402 46.01 5.60553C46.4293 5.69992 46.7748 5.97478 46.9581 6.35974C47.1165 6.69239 47.1351 7.06648 47.0107 7.41316C46.8862 7.75984 46.6335 8.03754 46.2992 8.19511C45.9651 8.35257 45.5892 8.37155 45.2405 8.24742C44.8921 8.1236 44.613 7.87216 44.4544 7.53898C44.4424 7.51378 44.4316 7.48825 44.4212 7.46263C44.3119 7.19336 44.0958 6.98095 43.8239 6.87537C43.5519 6.7698 43.2483 6.78035 42.9847 6.9047L40.7243 7.97014C40.5154 7.53666 40.2779 7.11943 40.0141 6.72076L42.3692 5.61091ZM31.0855 4.03035C35.8069 4.03035 39.648 7.85244 39.648 12.5502C39.648 13.7794 39.3798 14.9968 38.8684 16.1059H23.3026C22.7911 14.9969 22.523 13.7796 22.523 12.5502C22.523 7.85244 26.3642 4.03035 31.0855 4.03035ZM13.7099 6.40836C16.5712 5.05994 19.7911 4.90005 22.7381 5.92468C21.2774 7.74296 20.4031 10.047 20.4031 12.5504C20.4031 13.7644 20.6131 14.9695 21.0176 16.1061H6.92929C7.30155 11.9463 9.87905 8.21377 13.7099 6.40836ZM44.6375 25.744H14.2482C13.6628 25.744 13.1883 26.2161 13.1883 26.7986C13.1883 27.3811 13.6628 27.8533 14.2482 27.8533H44.3811L41.4591 51.8905H8.21068L5.88575 32.7648H32.8599C33.4453 32.7648 33.9198 32.2925 33.9198 31.7101C33.9198 31.1277 33.4453 30.6554 32.8599 30.6554H5.62924L4.74248 23.3609H44.9273L44.6375 25.744ZM47.55 21.2514H2.11992V18.2156H47.55V21.2514Z" fill="white"/>
</svg>
