<svg width="36" height="54" viewBox="0 0 36 54" fill="none" xmlns="http://www.w3.org/2000/svg">
<path d="M30.2544 38.2894C30.2417 38.2219 30.2205 38.1554 30.194 38.0922C30.1675 38.0278 30.1347 37.9666 30.0965 37.9097C30.0583 37.8517 30.0138 37.7979 29.9651 37.7494C29.7192 37.5047 29.3535 37.3918 29.009 37.4614C28.9411 37.4752 28.8744 37.4952 28.8108 37.5216C28.7461 37.5479 28.6846 37.5806 28.6274 37.6186C28.5691 37.6566 28.515 37.7009 28.4663 37.7494C28.4175 37.7979 28.373 37.8517 28.3348 37.9097C28.2967 37.9666 28.2638 38.0278 28.2373 38.0922C28.2108 38.1554 28.1907 38.2219 28.1769 38.2894C28.1631 38.3569 28.1557 38.4265 28.1557 38.495C28.1557 38.5636 28.1631 38.6332 28.1769 38.7018C28.1907 38.7682 28.2108 38.8347 28.2373 38.899C28.2638 38.9623 28.2967 39.0234 28.3348 39.0804C28.373 39.1384 28.4175 39.1922 28.4663 39.2407C28.515 39.2892 28.5691 39.3335 28.6274 39.3725C28.6846 39.4105 28.7461 39.4432 28.8108 39.4696C28.8744 39.4959 28.9411 39.516 29.009 39.5297C29.0768 39.5434 29.1468 39.5497 29.2157 39.5497C29.4944 39.5497 29.7679 39.4379 29.9651 39.2407C30.0138 39.1922 30.0583 39.1384 30.0965 39.0804C30.1347 39.0234 30.1675 38.9623 30.194 38.899C30.2205 38.8347 30.2417 38.7682 30.2544 38.7018C30.2682 38.6332 30.2756 38.5636 30.2756 38.495C30.2756 38.4265 30.2682 38.3569 30.2544 38.2894Z" fill="white"/>
<path d="M35.6571 23.2883C35.456 23.0639 35.1681 22.9355 34.8659 22.9355H33.6285V9.66509C33.6285 9.08258 33.1539 8.6104 32.5685 8.6104H28.8744V4.56112C28.8744 3.97861 28.3999 3.50643 27.8145 3.50643H23.0605C22.4751 3.50643 22.0006 3.97861 22.0006 4.56112V11.4656H19.3666V5.69797C19.3666 5.11547 18.892 4.64328 18.3066 4.64328H14.6125V1.05469C14.6125 0.472185 14.138 0 13.5525 0H8.79849C8.21307 0 7.73853 0.472185 7.73853 1.05469V10.233H4.04444C3.45902 10.233 2.98448 10.7052 2.98448 11.2877V22.9355H1.74718C1.44498 22.9355 1.1571 23.0639 0.956022 23.2883C0.754947 23.5128 0.659656 23.812 0.69421 24.1107L4.0419 53.0659C4.10348 53.5982 4.5564 54 5.09497 54H31.5184C32.057 54 32.5099 53.5982 32.5714 53.0659L35.9191 24.1107C35.9534 23.812 35.8581 23.5128 35.6571 23.2883ZM28.8745 10.7198H31.5087V22.9355H28.8745V10.7198ZM24.1205 5.61581H26.7546V23.1914C26.5691 23.3505 26.4387 23.5732 26.399 23.8295L25.6258 28.8153H24.1205V5.61581V5.61581ZM19.3666 13.5749H22.0007V28.8152H19.3666V13.5749ZM14.6125 6.75266H17.2466V28.8152H14.6125V6.75266ZM9.85846 2.10938H12.4926V28.8152H10.9873L10.2141 23.8294C10.1743 23.5732 10.044 23.3503 9.85846 23.1913V2.10938V2.10938ZM5.10451 12.3424H7.73863V22.9355H5.10451V12.3424ZM9.89524 51.8907L10.3404 48.0392H26.2727L26.7178 51.8907H9.89524ZM30.5732 51.8907H28.8518L28.2708 46.8641C28.2092 46.3318 27.7563 45.9299 27.2177 45.9299H9.39536C8.85679 45.9299 8.40387 46.3318 8.34228 46.8641L7.76132 51.8907H6.03983L4.61322 39.5502H24.9692C25.5546 39.5502 26.0292 39.078 26.0292 38.4955C26.0292 37.913 25.5546 37.4408 24.9692 37.4408H4.36943L3.36384 28.742H5.07134L5.84447 33.7281C5.92418 34.2425 6.36905 34.6219 6.89204 34.6219H29.721C30.244 34.6219 30.6889 34.2424 30.7686 33.7281L31.5417 28.742H33.2492L30.5732 51.8907ZM33.4931 26.6327H30.6328C30.1098 26.6327 29.6651 27.0122 29.5853 27.5265L28.8121 32.5126H7.80096L7.02782 27.5265C6.948 27.0121 6.50324 26.6327 5.98026 26.6327H3.11994L2.93646 25.045H8.25717L9.03052 30.0308C9.07557 30.3212 9.23711 30.5688 9.46341 30.7292C9.46553 30.7307 9.46765 30.7321 9.46977 30.7336C9.47401 30.7366 9.47835 30.7395 9.48259 30.7425C9.48599 30.7448 9.48938 30.747 9.49288 30.7493C9.49574 30.7512 9.4987 30.7531 9.50157 30.755C9.50612 30.758 9.51068 30.7608 9.51524 30.7637C9.51694 30.7647 9.51863 30.7658 9.52033 30.7668C9.52573 30.7702 9.53124 30.7735 9.53676 30.7767C9.5376 30.7773 9.53835 30.7777 9.5392 30.7782C9.65081 30.844 9.77557 30.8899 9.9087 30.9112C9.90923 30.9113 9.90986 30.9114 9.9105 30.9115C9.91697 30.9126 9.92343 30.9135 9.93 30.9144C9.93202 30.9147 9.93393 30.9149 9.93594 30.9152C9.94166 30.916 9.94739 30.9167 9.95311 30.9173C9.95608 30.9177 9.95894 30.9181 9.96191 30.9184C9.967 30.9189 9.97208 30.9194 9.97728 30.92C9.98088 30.9203 9.98438 30.9206 9.98798 30.9209C9.99265 30.9213 9.99731 30.9217 10.002 30.9221C10.0061 30.9224 10.0104 30.9226 10.0146 30.9228C10.0188 30.923 10.0231 30.9234 10.0273 30.9236C10.0326 30.9238 10.0379 30.924 10.0432 30.9242C10.0463 30.9243 10.0495 30.9244 10.0525 30.9245C10.0612 30.9247 10.0699 30.9248 10.0786 30.9248H26.535C26.5437 30.9248 26.5524 30.9247 26.5611 30.9245C26.5641 30.9244 26.5673 30.9243 26.5704 30.9242C26.5757 30.924 26.581 30.9239 26.5863 30.9236C26.5905 30.9234 26.5948 30.9231 26.599 30.9228C26.6033 30.9226 26.6074 30.9223 26.6116 30.9221C26.6163 30.9218 26.621 30.9213 26.6256 30.9209C26.6292 30.9206 26.6327 30.9203 26.6363 30.92C26.6414 30.9194 26.6466 30.9189 26.6517 30.9184C26.6547 30.9181 26.6575 30.9178 26.6605 30.9173C26.6662 30.9167 26.6719 30.916 26.6777 30.9152C26.6796 30.9149 26.6816 30.9147 26.6836 30.9144C26.6901 30.9134 26.6966 30.9125 26.7031 30.9115C26.7037 30.9114 26.7043 30.9113 26.7049 30.9112C26.838 30.8899 26.9628 30.8439 27.0744 30.7782C27.0753 30.7778 27.076 30.7773 27.0768 30.7767C27.0824 30.7735 27.0878 30.7702 27.0933 30.7668C27.095 30.7658 27.0967 30.7647 27.0984 30.7637C27.1029 30.7608 27.1075 30.7579 27.112 30.755C27.115 30.7531 27.1179 30.7512 27.1207 30.7493C27.1241 30.747 27.1276 30.7448 27.131 30.7425C27.1354 30.7395 27.1396 30.7366 27.1438 30.7336C27.146 30.7321 27.1481 30.7307 27.1502 30.7292C27.3765 30.5688 27.538 30.3213 27.5831 30.0308L28.3564 25.045H33.6771L33.4931 26.6327Z" fill="white"/>
</svg>
