<svg width="37" height="56" viewBox="0 0 37 56" fill="none" xmlns="http://www.w3.org/2000/svg">
<path d="M5.07981 44.9101L1.07761 12.07C0.775128 9.60758 1.29009 9.09998 3.8149 9.09998H30.6854C33.2102 9.09998 33.7202 9.60758 33.4202 12.07L29.418 44.9101C28.873 49.3786 28.6006 51.6142 27.0332 52.9561C23.7909 55.7398 10.5669 55.621 7.46463 52.9561C5.89725 51.6142 5.62477 49.3786 5.07981 44.9101Z" stroke="white" stroke-width="2" stroke-linecap="round" stroke-linejoin="round"/>
<path d="M22.2486 46.9L23.3635 3.5407C23.4011 2.85351 23.6803 2.20779 24.144 1.73554C24.6077 1.26329 25.2209 1.00018 25.8583 1H36" stroke="white" stroke-width="2" stroke-linecap="round" stroke-linejoin="round"/>
<path d="M3.49994 22.6C3.95491 21.7009 5.45479 19.9 8.72455 19.9C12.8167 19.9 11.7368 22.6 14.4641 22.6C17.1914 22.6 21.2836 19.9 25.3733 19.9C29.463 19.9 32.2478 22.6 32.2478 22.6M13.5217 38.8H13.4992" stroke="white" stroke-width="2" stroke-linecap="round" stroke-linejoin="round"/>
</svg>
