<svg width="52" height="56" viewBox="0 0 52 56" fill="none" xmlns="http://www.w3.org/2000/svg">
<path d="M33.3661 47.2857C33.3661 51.5466 31.0614 55 27.1161 55H12.3839C8.43862 55 6.13393 51.5466 6.13393 47.2857M34.9286 37.6428C36.9007 37.6428 38.5 39.8016 38.5 42.4643C38.5 45.1269 36.9007 47.2857 34.9286 47.2857H4.57143C2.59933 47.2857 1 45.1269 1 42.4643C1 39.8016 2.59933 37.6428 4.57143 37.6428" stroke="white" stroke-width="2" stroke-miterlimit="10" stroke-linecap="round"/>
<path d="M4.57143 30.4107V30.3842C4.57143 23.7547 9.59375 20.2857 15.7321 20.2857H23.7679C29.9062 20.2857 34.9286 23.7812 34.9286 30.4107V30.3842M24.3259 10.6428L25.1563 18.3535M35.8214 37.6428H17.4408C17.2044 37.6429 16.9776 37.7444 16.8103 37.9249L13.8158 41.1589C13.7744 41.2037 13.7252 41.2392 13.671 41.2635C13.6168 41.2878 13.5587 41.3003 13.5 41.3003C13.4413 41.3003 13.3832 41.2878 13.329 41.2635C13.2748 41.2392 13.2256 41.2037 13.1842 41.1589L10.1897 37.9249C10.0224 37.7444 9.79564 37.6429 9.55915 37.6428H3.67857C2.96817 37.6428 2.28687 37.338 1.78454 36.7955C1.28221 36.253 1 35.5172 1 34.75C1 33.9827 1.28221 33.2469 1.78454 32.7044C2.28687 32.1619 2.96817 31.8571 3.67857 31.8571H35.8214C36.5318 31.8571 37.2131 32.1619 37.7155 32.7044C38.2178 33.2469 38.5 33.9827 38.5 34.75C38.5 35.5172 38.2178 36.253 37.7155 36.7955C37.2131 37.338 36.5318 37.6428 35.8214 37.6428Z" stroke="white" stroke-width="2" stroke-miterlimit="10" stroke-linecap="round"/>
<path d="M26 55H41.548C42.449 54.9999 43.3167 54.6321 43.9772 53.9702C44.6377 53.3083 45.0421 52.4013 45.1094 51.4309L49.1027 10.6428" stroke="white" stroke-width="2" stroke-miterlimit="10" stroke-linecap="round"/>
<path d="M38.5 10.6429L40.2857 2.92857L45.5312 1" stroke="white" stroke-width="2" stroke-linecap="round" stroke-linejoin="round"/>
<path d="M22.4286 10.6428H51" stroke="white" stroke-width="2" stroke-miterlimit="10" stroke-linecap="round"/>
</svg>
