<svg width="40" height="40" viewBox="0 0 40 40" fill="none" xmlns="http://www.w3.org/2000/svg">
<rect width="40" height="40" rx="20" fill="#525252"/>
<path d="M20 30C17.4444 30 15.2178 29.153 13.32 27.4589C11.4222 25.7648 10.3341 23.6489 10.0556 21.1111H12.3333C12.5926 23.037 13.4493 24.6296 14.9033 25.8889C16.3574 27.1481 18.0563 27.7778 20 27.7778C22.1667 27.7778 24.0048 27.0233 25.5144 25.5144C27.0241 24.0056 27.7785 22.1674 27.7778 20C27.777 17.8326 27.0226 15.9948 25.5144 14.4867C24.0063 12.9785 22.1681 12.2237 20 12.2222C18.7222 12.2222 17.5278 12.5185 16.4167 13.1111C15.3056 13.7037 14.3704 14.5185 13.6111 15.5556H16.6667V17.7778H10V11.1111H12.2222V13.7222C13.1667 12.537 14.3196 11.6204 15.6811 10.9722C17.0426 10.3241 18.4822 10 20 10C21.3889 10 22.69 10.2641 23.9033 10.7922C25.1167 11.3204 26.1722 12.033 27.07 12.93C27.9678 13.827 28.6807 14.8826 29.2089 16.0967C29.737 17.3107 30.0007 18.6118 30 20C29.9993 21.3881 29.7356 22.6893 29.2089 23.9033C28.6822 25.1174 27.9693 26.173 27.07 27.07C26.1707 27.967 25.1152 28.68 23.9033 29.2089C22.6915 29.7378 21.3904 30.0015 20 30ZM23.1111 24.6667L18.8889 20.4444V14.4444H21.1111V19.5556L24.6667 23.1111L23.1111 24.6667Z" fill="white"/>
</svg>
