<svg width="125" height="55" viewBox="0 0 125 55" fill="none" xmlns="http://www.w3.org/2000/svg">
<path d="M40.3236 48H44.2473C46.2327 48 47.8636 46.603 48.1 44.8131L52 8.84038H40.1818V0H35.5255V8.84038H23.7782L24.4873 13.9482C28.5291 14.9741 32.3109 16.8295 34.58 18.8813C37.9836 21.9809 40.3236 25.1896 40.3236 30.4284V48ZM0 45.8172V43.6562H35.5255V45.8172C35.5255 47.0177 34.4618 48 33.1382 48H2.38727C1.06364 48 0 47.0177 0 45.8172ZM35.5255 30.5375C35.5255 13.075 0 13.075 0 30.5375H35.5255ZM0.0472727 34.925H35.5018V39.2906H0.0472727V34.925Z" fill="#704CFF"/>
<path d="M61.36 30.12C60.768 30.12 60.272 29.936 59.872 29.568C59.488 29.184 59.296 28.712 59.296 28.152C59.296 27.592 59.488 27.128 59.872 26.76C60.272 26.376 60.768 26.184 61.36 26.184C61.952 26.184 62.44 26.376 62.824 26.76C63.224 27.128 63.424 27.592 63.424 28.152C63.424 28.712 63.224 29.184 62.824 29.568C62.44 29.936 61.952 30.12 61.36 30.12ZM63.016 31.704V45H59.656V31.704H63.016ZM76.6797 28.248V30.96H69.6957V35.256H75.0477V37.92H69.6957V45H66.3357V28.248H76.6797ZM84.9663 45.216C83.6863 45.216 82.5343 44.936 81.5103 44.376C80.4863 43.8 79.6783 42.992 79.0863 41.952C78.5103 40.912 78.2223 39.712 78.2223 38.352C78.2223 36.992 78.5183 35.792 79.1103 34.752C79.7183 33.712 80.5423 32.912 81.5823 32.352C82.6223 31.776 83.7823 31.488 85.0623 31.488C86.3423 31.488 87.5023 31.776 88.5423 32.352C89.5823 32.912 90.3983 33.712 90.9903 34.752C91.5983 35.792 91.9023 36.992 91.9023 38.352C91.9023 39.712 91.5903 40.912 90.9662 41.952C90.3583 42.992 89.5263 43.8 88.4703 44.376C87.4303 44.936 86.2623 45.216 84.9663 45.216ZM84.9663 42.288C85.5743 42.288 86.1423 42.144 86.6703 41.856C87.2143 41.552 87.6463 41.104 87.9663 40.512C88.2863 39.92 88.4463 39.2 88.4463 38.352C88.4463 37.088 88.1103 36.12 87.4383 35.448C86.7823 34.76 85.9743 34.416 85.0143 34.416C84.0543 34.416 83.2463 34.76 82.5903 35.448C81.9503 36.12 81.6303 37.088 81.6303 38.352C81.6303 39.616 81.9423 40.592 82.5663 41.28C83.2063 41.952 84.0063 42.288 84.9663 42.288ZM100.271 45.216C98.9909 45.216 97.8389 44.936 96.8149 44.376C95.7909 43.8 94.9829 42.992 94.3909 41.952C93.8149 40.912 93.5269 39.712 93.5269 38.352C93.5269 36.992 93.8229 35.792 94.4149 34.752C95.0229 33.712 95.8469 32.912 96.8869 32.352C97.9269 31.776 99.0869 31.488 100.367 31.488C101.647 31.488 102.807 31.776 103.847 32.352C104.887 32.912 105.703 33.712 106.295 34.752C106.903 35.792 107.207 36.992 107.207 38.352C107.207 39.712 106.895 40.912 106.271 41.952C105.663 42.992 104.831 43.8 103.775 44.376C102.735 44.936 101.567 45.216 100.271 45.216ZM100.271 42.288C100.879 42.288 101.447 42.144 101.975 41.856C102.519 41.552 102.951 41.104 103.271 40.512C103.591 39.92 103.751 39.2 103.751 38.352C103.751 37.088 103.415 36.12 102.743 35.448C102.087 34.76 101.279 34.416 100.319 34.416C99.3589 34.416 98.5509 34.76 97.8949 35.448C97.2549 36.12 96.9349 37.088 96.9349 38.352C96.9349 39.616 97.2469 40.592 97.8709 41.28C98.5109 41.952 99.3109 42.288 100.271 42.288ZM108.808 38.304C108.808 36.96 109.072 35.768 109.6 34.728C110.144 33.688 110.88 32.888 111.808 32.328C112.736 31.768 113.768 31.488 114.904 31.488C115.768 31.488 116.592 31.68 117.376 32.064C118.16 32.432 118.784 32.928 119.248 33.552V27.24H122.656V45H119.248V43.032C118.832 43.688 118.248 44.216 117.496 44.616C116.744 45.016 115.872 45.216 114.88 45.216C113.76 45.216 112.736 44.928 111.808 44.352C110.88 43.776 110.144 42.968 109.6 41.928C109.072 40.872 108.808 39.664 108.808 38.304ZM119.272 38.352C119.272 37.536 119.112 36.84 118.792 36.264C118.472 35.672 118.04 35.224 117.496 34.92C116.952 34.6 116.368 34.44 115.744 34.44C115.12 34.44 114.544 34.592 114.016 34.896C113.488 35.2 113.056 35.648 112.72 36.24C112.4 36.816 112.24 37.504 112.24 38.304C112.24 39.104 112.4 39.808 112.72 40.416C113.056 41.008 113.488 41.464 114.016 41.784C114.56 42.104 115.136 42.264 115.744 42.264C116.368 42.264 116.952 42.112 117.496 41.808C118.04 41.488 118.472 41.04 118.792 40.464C119.112 39.872 119.272 39.168 119.272 38.352Z" fill="#B8B8B8"/>
</svg>
