<svg width="52" height="52" viewBox="0 0 52 52" fill="none" xmlns="http://www.w3.org/2000/svg">
<rect width="52" height="52" rx="26" fill="#21222D"/>
<path d="M34.2636 40H36.5273C37.6727 40 38.6136 39.1851 38.75 38.141L41 17.1569H34.1818V12H31.4955V17.1569H24.7182L25.1273 20.1364C27.4591 20.7349 29.6409 21.8172 30.95 23.0141C32.9136 24.8222 34.2636 26.694 34.2636 29.7499V40ZM11 38.7267V37.4661H31.4955V38.7267C31.4955 39.427 30.8818 40 30.1182 40H12.3773C11.6136 40 11 39.427 11 38.7267ZM31.4955 29.8136C31.4955 19.6271 11 19.6271 11 29.8136H31.4955ZM11.0273 32.3729H31.4818V34.9195H11.0273V32.3729Z" fill="#B8B8B8"/>
</svg>
