<svg width="20" height="20" viewBox="0 0 20 20" fill="none" xmlns="http://www.w3.org/2000/svg">
<path d="M3.63601 3.63601C7.15101 0.121006 12.849 0.121006 16.364 3.63601C19.879 7.15101 19.879 12.849 16.364 16.364C12.849 19.879 7.15101 19.879 3.63601 16.364C0.121006 12.849 0.121006 7.15101 3.63601 3.63601V3.63601Z" stroke="#323232" stroke-width="1.2" stroke-linecap="round" stroke-linejoin="round"/>
<path d="M10.8839 9.11612C11.372 9.60427 11.372 10.3957 10.8839 10.8839C10.3957 11.372 9.60428 11.372 9.11612 10.8839C8.62796 10.3957 8.62796 9.60428 9.11612 9.11612C9.60427 8.62796 10.3957 8.62796 10.8839 9.11612Z" stroke="#323232" stroke-width="1.2" stroke-linecap="round" stroke-linejoin="round"/>
<path d="M5.81102 13.645L6.38902 7.29498C6.43302 6.81398 6.81402 6.43298 7.29402 6.38998L13.644 5.81298C13.955 5.78498 14.215 6.04498 14.187 6.35598L13.61 12.706C13.566 13.187 13.185 13.568 12.705 13.611L6.35402 14.188C6.04402 14.216 5.78302 13.956 5.81102 13.645V13.645Z" stroke="#323232" stroke-width="1.2" stroke-linecap="round" stroke-linejoin="round"/>
</svg>
