<svg width="53" height="54" viewBox="0 0 53 54" fill="none" xmlns="http://www.w3.org/2000/svg">
<path d="M52.5693 5.17947L47.6746 0.309136C47.2607 -0.10272 46.5895 -0.10272 46.1755 0.309136L32.5031 13.9135C30.4977 12.6854 28.173 12.0191 25.7447 12.0191C21.9825 12.0191 18.4691 13.6181 16.0062 16.4286C15.3124 16.3135 14.6001 16.2537 13.874 16.2537C6.85557 16.2537 1.1251 21.8463 0.947555 28.7881C0.912788 28.8926 0.893921 29.0041 0.893921 29.12C0.893921 31.0903 1.13273 33.0199 1.60388 34.855C2.44221 38.1207 4.00957 41.1073 6.26241 43.732C8.26807 46.0687 10.7694 48.0665 13.7039 49.6766V52.9456C13.7039 53.5281 14.1784 54.0002 14.7638 54.0002H36.7255C37.3109 54.0002 37.7855 53.5281 37.7855 52.9456V49.6766C40.72 48.0665 43.2214 46.0687 45.227 43.732C47.4799 41.1073 49.0472 38.1207 49.8856 34.855C50.3567 33.0198 50.5955 31.0902 50.5955 29.12C50.5955 29.004 50.5766 28.8923 50.5419 28.7879C50.4044 23.4149 46.9401 18.8501 42.1268 17.0615L52.5693 6.67101C52.9833 6.25916 52.9833 5.59133 52.5693 5.17947ZM46.9251 2.54645L47.8734 3.49007L35.1926 16.1078C34.8858 15.7802 34.5642 15.4705 34.2293 15.1792L46.9251 2.54645ZM25.7447 14.1286C28.0029 14.1286 30.1542 14.8183 31.9504 16.0775C31.9953 16.1155 32.0428 16.1492 32.0921 16.1786C32.458 16.4441 32.8086 16.7334 33.1417 17.0458C32.4102 17.3133 31.7097 17.6444 31.0466 18.033C29.532 16.8702 27.6785 16.2379 25.7446 16.2379C23.8107 16.2379 21.9573 16.8702 20.4426 18.033C19.7797 17.6444 19.079 17.3133 18.3477 17.0458C20.3416 15.1758 22.962 14.1286 25.7447 14.1286ZM25.7447 20.4567C25.0746 20.4567 24.4164 20.6084 23.8193 20.8938C23.3487 20.3293 22.8313 19.8074 22.2733 19.3329C23.307 18.6915 24.5039 18.3474 25.7446 18.3474C26.9853 18.3474 28.1822 18.6916 29.216 19.3329C28.6581 19.8073 28.1409 20.3293 27.6701 20.8938C27.0731 20.6084 26.4148 20.4567 25.7447 20.4567ZM26.4274 22.6684C26.2094 23.0435 26.0091 23.4313 25.8279 23.8308H25.6615C25.4804 23.4313 25.2801 23.0435 25.062 22.6684C25.2818 22.6011 25.512 22.5661 25.7447 22.5661C25.9776 22.5661 26.2076 22.6011 26.4274 22.6684ZM13.874 18.3632C16.1109 18.3632 18.1913 19.0427 19.9177 20.2052C19.9228 20.2088 19.9279 20.2124 19.9329 20.2158C20.1035 20.3311 20.2701 20.4507 20.4328 20.5744C20.4369 20.5775 20.4409 20.5806 20.4449 20.5836C20.4642 20.5983 20.4834 20.6131 20.5026 20.6279C21.3356 21.2731 22.7018 22.9179 22.7108 22.9301C23.2078 23.6305 23.6229 24.3922 23.9421 25.2015C23.9446 25.2078 23.9471 25.214 23.9496 25.2203C24.3013 26.1169 24.5354 27.0715 24.6331 28.0653H22.5005C21.976 23.7926 18.3074 20.4723 13.874 20.4723C9.4406 20.4723 5.77197 23.7925 5.2475 28.0653H3.11475C3.64918 22.6272 8.27062 18.3632 13.874 18.3632ZM13.874 24.6912C11.7848 24.6912 10.0273 26.1307 9.55052 28.0654H7.38852C7.89666 24.9597 10.6114 22.5818 13.8739 22.5818C17.1363 22.5818 19.8512 24.9597 20.3594 28.0654H18.1975C17.7207 26.1309 15.9632 24.6912 13.874 24.6912ZM15.9498 28.0654H11.7981C12.1846 27.3152 12.9701 26.8006 13.8739 26.8006C14.7777 26.8006 15.5633 27.3152 15.9498 28.0654ZM36.2332 48.1124C35.8843 48.2946 35.6656 48.6543 35.6656 49.0464V51.8909H15.8238V50.0985H28.0971C28.6825 50.0985 29.1571 49.6263 29.1571 49.0438C29.1571 48.4613 28.6825 47.9892 28.0971 47.9892H15.0229C9.52445 45.0568 5.75554 40.8136 4.04413 35.6488H47.4455C45.7098 40.8864 41.8586 45.1764 36.2332 48.1124ZM48.018 33.5394H3.47154C3.23866 32.4474 3.09398 31.3215 3.03896 30.1747H48.4506C48.3957 31.3215 48.251 32.4474 48.018 33.5394ZM37.6154 24.6912C35.5263 24.6912 33.7687 26.1307 33.292 28.0654H31.13C31.6381 24.9597 34.3529 22.5818 37.6154 22.5818C40.878 22.5818 43.5928 24.9597 44.1009 28.0654H41.9389C41.4621 26.1309 39.7046 24.6912 37.6154 24.6912ZM39.6914 28.0654H35.5396C35.9262 27.3152 36.7116 26.8006 37.6154 26.8006C38.5194 26.8007 39.3048 27.3152 39.6914 28.0654ZM48.3747 28.0654H46.242C45.7176 23.7927 42.0489 20.4725 37.6155 20.4725C33.1821 20.4725 29.5135 23.7926 28.989 28.0654H26.8563C26.9531 27.0801 27.1841 26.1334 27.5308 25.2435C27.5379 25.2252 27.5451 25.2069 27.5523 25.1887C27.5555 25.1807 27.5586 25.1727 27.5618 25.1648C27.5647 25.1576 27.5675 25.1505 27.5704 25.1433C27.5775 25.1255 27.5847 25.1078 27.5919 25.09C27.5981 25.0748 27.6043 25.0596 27.6106 25.0444C27.6135 25.0371 27.6166 25.0299 27.6196 25.0227C27.9281 24.2802 28.318 23.5792 28.7779 22.9309C28.7872 22.9185 28.7962 22.9058 28.8049 22.8931C29.4182 22.0366 31.0254 20.5982 31.0446 20.5836C31.0486 20.5807 31.0525 20.5777 31.0564 20.5747C31.2192 20.4508 31.3859 20.3312 31.5565 20.2158C31.5617 20.2124 31.5667 20.2088 31.5718 20.2052C32.7257 19.4281 34.038 18.8668 35.4494 18.58C35.4509 18.5797 35.4524 18.5794 35.4539 18.5792C36.1525 18.4375 36.8754 18.3632 37.6154 18.3632C43.2189 18.3632 47.8404 22.6272 48.3747 28.0654ZM39.7624 16.4311C39.1987 16.337 38.6228 16.2792 38.0373 16.2606L49.3725 4.98172L50.3209 5.92535L39.7624 16.4311Z" fill="white"/>
</svg>
