<svg width="50" height="54" viewBox="0 0 50 54" fill="none" xmlns="http://www.w3.org/2000/svg">
<path d="M29.3211 0C29.2174 0.000342586 29.1133 0.00184138 29.0089 0.00449642C24.0055 0.132067 18.5402 3.04756 15.0651 7.0472C10.5154 12.2834 5.09883 20.9429 2.17485 29.2785C0.712758 33.4463 -0.12031 37.5288 0.0141256 41.0084C0.148561 44.488 1.17667 47.3276 3.54198 49.4291C5.24519 50.9424 6.64679 50.8404 8.40053 49.7785C10.1542 48.7163 12.0939 46.5251 14.0851 43.9453C18.0674 38.7857 22.1909 32.0681 27.2043 30.0794C33.9037 27.422 37.8592 25.6561 40.3146 24.0689C42.7698 22.4819 43.718 21.1827 44.7314 19.0483C45.5231 17.3815 45.6383 15.6995 45.2768 13.9247C44.9152 12.1499 44.0421 10.3061 42.8428 8.57778C40.4439 5.12157 36.7441 2.16124 33.7678 0.869225C32.3855 0.269272 30.8783 -0.00308341 29.321 0.000256798L29.3211 0ZM29.6917 3.11667C31.9912 3.10344 34.2609 3.67397 36.0332 5.25916C41.1888 9.87057 45.4062 12.8337 41.9286 19.6323C38.451 26.4313 22.7385 27.1054 18.3416 22.2094C18.1613 20.8482 16.9742 10.4609 19.4449 6.58073C20.8022 5.29513 25.3015 3.14159 29.6916 3.11654L29.6917 3.11667ZM16.6959 8.72565C16.5812 8.98131 15.9276 19.4031 15.568 21.436C13.4651 22.6858 7.78592 24.1434 7.55391 22.3324C7.94616 20.1928 11.5761 13.0835 16.696 8.72553L16.6959 8.72565ZM46.8458 12.0977C46.9751 12.5182 47.0847 12.947 47.1738 13.3819C47.6292 15.6173 47.4705 17.996 46.4323 20.1822C45.3113 22.5427 43.9379 24.361 41.2491 26.0991C38.5603 27.8372 34.549 29.6044 27.8238 32.2721C23.8256 33.8582 19.6026 40.2233 15.5253 45.506C13.4866 48.1473 11.4687 50.5173 9.28867 51.8376C8.64956 52.2248 7.98226 52.5062 7.30227 52.6621C7.63077 52.8844 7.96827 53.091 8.29591 53.2695C9.17581 53.7492 10.0899 53.9977 10.1603 54C11.6822 53.9165 13.3131 52.9304 15.0191 51.2991C16.7342 49.6593 18.4952 47.4085 20.2765 45.0457C23.8391 40.32 27.4042 35.0863 31.5999 33.422C38.3018 30.7635 42.2973 29.0183 44.7686 27.4426C47.2399 25.8671 48.1729 24.5861 49.11 22.4287C50.1652 19.9991 50.2206 18.2848 49.5986 16.4832C49.1291 15.1236 48.1926 13.6915 46.8459 12.0978L46.8458 12.0977ZM12.744 24.3622C16.4258 24.3378 20.2344 26.5141 24.0938 28.9989C16.3683 33.7931 8.71071 52.1653 3.80565 46.2126C1.83183 43.6297 1.6988 30.8258 7.07406 26.4843C8.92179 24.992 10.8156 24.375 12.744 24.3622ZM8.79082 33.7678C8.20148 33.7811 7.60692 33.9952 7.19277 34.3828C5.85492 35.6358 4.83798 38.7694 5.97787 40.2724C7.0682 41.71 9.82229 41.0196 10.8271 39.5C11.7228 38.1454 11.444 35.5062 10.3587 34.3587C9.96497 33.9424 9.3805 33.7549 8.79104 33.7677L8.79082 33.7678Z" fill="white"/>
</svg>
