<svg width="121" height="38" viewBox="0 0 121 38" fill="none" xmlns="http://www.w3.org/2000/svg">
<rect width="121" height="38" rx="8" fill="#1BCF92" fill-opacity="0.15"/>
<path d="M45.408 26.192C44.6613 26.192 43.968 26.0533 43.328 25.776C42.688 25.488 42.144 25.0987 41.696 24.608C41.248 24.1173 40.9173 23.552 40.704 22.912L42.304 22.24C42.592 22.976 43.0133 23.5413 43.568 23.936C44.1227 24.3307 44.7627 24.528 45.488 24.528C45.9147 24.528 46.288 24.464 46.608 24.336C46.928 24.1973 47.1733 24.0053 47.344 23.76C47.5253 23.5147 47.616 23.232 47.616 22.912C47.616 22.4747 47.4933 22.128 47.248 21.872C47.0027 21.616 46.64 21.4133 46.16 21.264L43.92 20.56C43.024 20.2827 42.3413 19.8613 41.872 19.296C41.4027 18.72 41.168 18.048 41.168 17.28C41.168 16.608 41.3333 16.0213 41.664 15.52C41.9947 15.008 42.448 14.608 43.024 14.32C43.6107 14.032 44.2773 13.888 45.024 13.888C45.7387 13.888 46.3893 14.016 46.976 14.272C47.5627 14.5173 48.064 14.8587 48.48 15.296C48.9067 15.7333 49.216 16.24 49.408 16.816L47.84 17.504C47.6053 16.8747 47.2373 16.3893 46.736 16.048C46.2453 15.7067 45.6747 15.536 45.024 15.536C44.6293 15.536 44.2827 15.6053 43.984 15.744C43.6853 15.872 43.4507 16.064 43.28 16.32C43.12 16.5653 43.04 16.8533 43.04 17.184C43.04 17.568 43.1627 17.9093 43.408 18.208C43.6533 18.5067 44.0267 18.7307 44.528 18.88L46.608 19.536C47.5573 19.824 48.272 20.24 48.752 20.784C49.232 21.3173 49.472 21.984 49.472 22.784C49.472 23.4453 49.296 24.032 48.944 24.544C48.6027 25.056 48.128 25.4613 47.52 25.76C46.912 26.048 46.208 26.192 45.408 26.192ZM54.5034 26.192C53.8527 26.192 53.282 26.048 52.7914 25.76C52.3007 25.4613 51.9167 25.0507 51.6394 24.528C51.3727 23.9947 51.2394 23.3813 51.2394 22.688V17.344H53.0474V22.528C53.0474 22.9227 53.1274 23.2693 53.2874 23.568C53.4474 23.8667 53.6714 24.1013 53.9594 24.272C54.2474 24.432 54.578 24.512 54.9514 24.512C55.3354 24.512 55.6714 24.4267 55.9594 24.256C56.2474 24.0853 56.4714 23.8453 56.6314 23.536C56.802 23.2267 56.8874 22.864 56.8874 22.448V17.344H58.6794V26H56.9674V24.304L57.1594 24.528C56.9567 25.0613 56.6207 25.472 56.1514 25.76C55.682 26.048 55.1327 26.192 54.5034 26.192ZM64.9024 26.192C64.0384 26.192 63.2704 25.9947 62.5984 25.6C61.937 25.1947 61.409 24.6507 61.0144 23.968C60.6304 23.2853 60.4384 22.512 60.4384 21.648C60.4384 20.7947 60.6304 20.0267 61.0144 19.344C61.3984 18.6613 61.9264 18.128 62.5984 17.744C63.2704 17.3493 64.0384 17.152 64.9024 17.152C65.489 17.152 66.0384 17.2587 66.5504 17.472C67.0624 17.6747 67.505 17.9573 67.8784 18.32C68.2624 18.6827 68.545 19.104 68.7264 19.584L67.1424 20.32C66.961 19.872 66.6677 19.5147 66.2624 19.248C65.8677 18.9707 65.4144 18.832 64.9024 18.832C64.4117 18.832 63.969 18.9547 63.5744 19.2C63.1904 19.4347 62.8864 19.7707 62.6624 20.208C62.4384 20.6347 62.3264 21.12 62.3264 21.664C62.3264 22.208 62.4384 22.6987 62.6624 23.136C62.8864 23.5627 63.1904 23.8987 63.5744 24.144C63.969 24.3893 64.4117 24.512 64.9024 24.512C65.425 24.512 65.8784 24.3787 66.2624 24.112C66.657 23.8347 66.9504 23.4667 67.1424 23.008L68.7264 23.76C68.5557 24.2187 68.2784 24.6347 67.8944 25.008C67.521 25.3707 67.0784 25.6587 66.5664 25.872C66.0544 26.0853 65.4997 26.192 64.9024 26.192ZM74.6055 26.192C73.7415 26.192 72.9735 25.9947 72.3015 25.6C71.6402 25.1947 71.1122 24.6507 70.7175 23.968C70.3335 23.2853 70.1415 22.512 70.1415 21.648C70.1415 20.7947 70.3335 20.0267 70.7175 19.344C71.1015 18.6613 71.6295 18.128 72.3015 17.744C72.9735 17.3493 73.7415 17.152 74.6055 17.152C75.1922 17.152 75.7415 17.2587 76.2535 17.472C76.7655 17.6747 77.2082 17.9573 77.5815 18.32C77.9655 18.6827 78.2482 19.104 78.4295 19.584L76.8455 20.32C76.6642 19.872 76.3708 19.5147 75.9655 19.248C75.5708 18.9707 75.1175 18.832 74.6055 18.832C74.1148 18.832 73.6722 18.9547 73.2775 19.2C72.8935 19.4347 72.5895 19.7707 72.3655 20.208C72.1415 20.6347 72.0295 21.12 72.0295 21.664C72.0295 22.208 72.1415 22.6987 72.3655 23.136C72.5895 23.5627 72.8935 23.8987 73.2775 24.144C73.6722 24.3893 74.1148 24.512 74.6055 24.512C75.1282 24.512 75.5815 24.3787 75.9655 24.112C76.3602 23.8347 76.6535 23.4667 76.8455 23.008L78.4295 23.76C78.2588 24.2187 77.9815 24.6347 77.5975 25.008C77.2242 25.3707 76.7815 25.6587 76.2695 25.872C75.7575 26.0853 75.2028 26.192 74.6055 26.192ZM84.2606 26.192C83.3966 26.192 82.6286 25.9947 81.9566 25.6C81.2953 25.1947 80.778 24.6507 80.4046 23.968C80.0313 23.2747 79.8446 22.5013 79.8446 21.648C79.8446 20.7733 80.0313 20 80.4046 19.328C80.7886 18.656 81.3006 18.128 81.9406 17.744C82.5806 17.3493 83.306 17.152 84.1166 17.152C84.7673 17.152 85.3486 17.264 85.8606 17.488C86.3726 17.712 86.8046 18.0213 87.1566 18.416C87.5086 18.8 87.7753 19.2427 87.9566 19.744C88.1486 20.2453 88.2446 20.7787 88.2446 21.344C88.2446 21.4827 88.2393 21.6267 88.2286 21.776C88.218 21.9253 88.1966 22.064 88.1646 22.192H81.2686V20.752H87.1406L86.2766 21.408C86.3833 20.8853 86.346 20.4213 86.1646 20.016C85.994 19.6 85.7273 19.2747 85.3646 19.04C85.0126 18.7947 84.5966 18.672 84.1166 18.672C83.6366 18.672 83.21 18.7947 82.8366 19.04C82.4633 19.2747 82.1753 19.616 81.9726 20.064C81.77 20.5013 81.69 21.0347 81.7326 21.664C81.6793 22.2507 81.7593 22.7627 81.9726 23.2C82.1966 23.6373 82.506 23.9787 82.9006 24.224C83.306 24.4693 83.7646 24.592 84.2766 24.592C84.7993 24.592 85.242 24.4747 85.6046 24.24C85.978 24.0053 86.2713 23.7013 86.4846 23.328L87.9566 24.048C87.786 24.4533 87.5193 24.8213 87.1566 25.152C86.8046 25.472 86.378 25.728 85.8766 25.92C85.386 26.1013 84.8473 26.192 84.2606 26.192ZM93.2091 26.192C92.3238 26.192 91.5451 25.9733 90.8731 25.536C90.2118 25.0987 89.7478 24.512 89.4811 23.776L90.8731 23.12C91.1078 23.6107 91.4278 24 91.8331 24.288C92.2491 24.576 92.7078 24.72 93.2091 24.72C93.6358 24.72 93.9825 24.624 94.2491 24.432C94.5158 24.24 94.6491 23.9787 94.6491 23.648C94.6491 23.4347 94.5905 23.264 94.4731 23.136C94.3558 22.9973 94.2065 22.8853 94.0251 22.8C93.8545 22.7147 93.6785 22.6507 93.4971 22.608L92.1371 22.224C91.3905 22.0107 90.8305 21.6907 90.4571 21.264C90.0945 20.8267 89.9131 20.32 89.9131 19.744C89.9131 19.2213 90.0465 18.768 90.3131 18.384C90.5798 17.9893 90.9478 17.6853 91.4171 17.472C91.8865 17.2587 92.4145 17.152 93.0011 17.152C93.7905 17.152 94.4945 17.3493 95.1131 17.744C95.7318 18.128 96.1691 18.6667 96.4251 19.36L95.0331 20.016C94.8625 19.6 94.5905 19.2693 94.2171 19.024C93.8545 18.7787 93.4438 18.656 92.9851 18.656C92.5905 18.656 92.2758 18.752 92.0411 18.944C91.8065 19.1253 91.6891 19.3653 91.6891 19.664C91.6891 19.8667 91.7425 20.0373 91.8491 20.176C91.9558 20.304 92.0945 20.4107 92.2651 20.496C92.4358 20.5707 92.6118 20.6347 92.7931 20.688L94.2011 21.104C94.9158 21.3067 95.4651 21.6267 95.8491 22.064C96.2331 22.4907 96.4251 23.0027 96.4251 23.6C96.4251 24.112 96.2865 24.5653 96.0091 24.96C95.7425 25.344 95.3691 25.648 94.8891 25.872C94.4091 26.0853 93.8491 26.192 93.2091 26.192ZM101.397 26.192C100.511 26.192 99.7326 25.9733 99.0606 25.536C98.3993 25.0987 97.9353 24.512 97.6686 23.776L99.0606 23.12C99.2953 23.6107 99.6153 24 100.021 24.288C100.437 24.576 100.895 24.72 101.397 24.72C101.823 24.72 102.17 24.624 102.437 24.432C102.703 24.24 102.837 23.9787 102.837 23.648C102.837 23.4347 102.778 23.264 102.661 23.136C102.543 22.9973 102.394 22.8853 102.213 22.8C102.042 22.7147 101.866 22.6507 101.685 22.608L100.325 22.224C99.578 22.0107 99.018 21.6907 98.6446 21.264C98.282 20.8267 98.1006 20.32 98.1006 19.744C98.1006 19.2213 98.234 18.768 98.5006 18.384C98.7673 17.9893 99.1353 17.6853 99.6046 17.472C100.074 17.2587 100.602 17.152 101.189 17.152C101.978 17.152 102.682 17.3493 103.301 17.744C103.919 18.128 104.357 18.6667 104.613 19.36L103.221 20.016C103.05 19.6 102.778 19.2693 102.405 19.024C102.042 18.7787 101.631 18.656 101.173 18.656C100.778 18.656 100.463 18.752 100.229 18.944C99.994 19.1253 99.8766 19.3653 99.8766 19.664C99.8766 19.8667 99.93 20.0373 100.037 20.176C100.143 20.304 100.282 20.4107 100.453 20.496C100.623 20.5707 100.799 20.6347 100.981 20.688L102.389 21.104C103.103 21.3067 103.653 21.6267 104.037 22.064C104.421 22.4907 104.613 23.0027 104.613 23.6C104.613 24.112 104.474 24.5653 104.197 24.96C103.93 25.344 103.557 25.648 103.077 25.872C102.597 26.0853 102.037 26.192 101.397 26.192Z" fill="#1BCF92"/>
<path d="M24 10C26.3869 10 28.6761 11.0009 30.364 12.7825C32.0518 14.5641 33 16.9804 33 19.5C33 22.0196 32.0518 24.4359 30.364 26.2175C28.6761 27.9991 26.3869 29 24 29C21.6131 29 19.3239 27.9991 17.636 26.2175C15.9482 24.4359 15 22.0196 15 19.5C15 16.9804 15.9482 14.5641 17.636 12.7825C19.3239 11.0009 21.6131 10 24 10ZM22.8789 21.3742L20.8796 19.2625C20.8079 19.1868 20.7228 19.1268 20.6292 19.0859C20.5355 19.0449 20.4351 19.0239 20.3338 19.0239C20.2324 19.0239 20.1321 19.0449 20.0384 19.0859C19.9448 19.1268 19.8597 19.1868 19.788 19.2625C19.6432 19.4153 19.5619 19.6225 19.5619 19.8386C19.5619 20.0547 19.6432 20.2619 19.788 20.4147L22.3337 23.1019C22.4052 23.1779 22.4902 23.2382 22.5839 23.2794C22.6776 23.3206 22.778 23.3418 22.8795 23.3418C22.981 23.3418 23.0814 23.3206 23.1751 23.2794C23.2688 23.2382 23.3538 23.1779 23.4253 23.1019L28.6967 17.5362C28.7693 17.4609 28.8271 17.3711 28.8667 17.2721C28.9063 17.173 28.927 17.0667 28.9274 16.9592C28.9279 16.8517 28.9082 16.7452 28.8695 16.6458C28.8308 16.5464 28.7738 16.456 28.7018 16.38C28.6298 16.3039 28.5443 16.2437 28.4502 16.2027C28.3561 16.1617 28.2552 16.1408 28.1533 16.1412C28.0515 16.1415 27.9507 16.1632 27.8569 16.2049C27.763 16.2465 27.6779 16.3074 27.6064 16.384L22.8789 21.3742Z" fill="#1BCF92"/>
</svg>
